<?xml version="1.0" standalone="no"?>
<!DOCTYPE svg PUBLIC "-//W3C//DTD SVG 20010904//EN"
 "http://www.w3.org/TR/2001/REC-SVG-20010904/DTD/svg10.dtd">
<svg version="1.0" xmlns="http://www.w3.org/2000/svg"
 width="1600.000000pt" height="1600.000000pt" viewBox="0 0 1600.000000 1600.000000"
 preserveAspectRatio="xMidYMid meet">

<g transform="translate(0.000000,1600.000000) scale(0.100000,-0.100000)"
fill="#000000" stroke="none">
<path d="M4655 13630 c-29 -12 -82 -70 -94 -103 -16 -42 -13 -98 7 -137 10
-19 169 -232 354 -473 205 -266 341 -451 347 -472 11 -41 -1 -95 -27 -118 -23
-21 -96 -39 -126 -31 -18 4 -76 72 -198 231 -616 801 -566 740 -617 749 -133
25 -266 -113 -221 -230 5 -14 50 -78 100 -143 50 -65 177 -230 282 -368 106
-137 215 -279 244 -315 109 -136 125 -179 88 -236 -35 -52 -120 -72 -169 -40
-13 9 -182 222 -376 473 -193 252 -365 467 -382 477 -38 25 -116 25 -154 1
-110 -70 -141 -153 -85 -231 73 -100 778 -1013 806 -1042 39 -43 136 -112 201
-145 95 -47 152 -59 330 -67 234 -10 392 -54 499 -139 l36 -28 -63 -49 c-173
-136 -411 -367 -557 -541 -447 -534 -722 -1088 -884 -1783 -54 -233 -90 -580
-90 -870 0 -651 148 -1271 442 -1857 161 -319 393 -650 654 -934 l78 -83 -33
-36 c-19 -19 -114 -125 -213 -235 -181 -203 -283 -317 -616 -687 -199 -222
-221 -255 -234 -371 -12 -107 44 -243 145 -350 157 -166 391 -192 580 -64 61
41 72 57 473 657 226 338 414 619 419 624 5 6 51 -20 111 -61 397 -272 911
-494 1388 -600 581 -129 1219 -129 1800 0 498 111 1045 353 1444 639 54 38 99
68 100 66 9 -12 414 -615 624 -930 275 -411 271 -406 404 -456 171 -64 359
-17 484 122 72 80 108 144 130 234 14 62 15 84 6 135 -18 97 -56 154 -227 344
-88 98 -259 288 -380 423 -120 135 -280 313 -354 395 -74 83 -143 160 -154
172 l-20 22 56 58 c121 127 304 361 420 539 312 479 522 1025 611 1589 36 229
50 411 50 645 0 651 -148 1271 -442 1857 -269 535 -699 1046 -1184 1411 -49
36 -88 69 -88 73 0 10 87 65 167 104 97 48 188 67 308 64 208 -5 285 5 406 52
98 38 186 95 267 172 77 75 128 150 220 327 212 406 312 805 282 1126 -23 248
-76 349 -220 418 -61 29 -72 31 -180 31 -92 -1 -135 -6 -215 -28 -384 -102
-743 -315 -1051 -622 -125 -125 -145 -149 -182 -225 -68 -140 -87 -223 -87
-380 1 -121 4 -148 34 -260 52 -193 46 -328 -21 -502 -16 -43 -34 -78 -39 -78
-6 0 -41 17 -77 39 -242 140 -624 295 -927 377 -351 94 -689 137 -1065 137
-760 0 -1465 -196 -2115 -587 -158 -95 -152 -95 -180 1 -45 154 -45 301 1 468
45 165 34 325 -35 493 -28 71 -90 157 -354 497 -34 45 -127 166 -207 270 -174
226 -247 322 -277 359 -31 39 -125 58 -178 36z m3872 -1769 c576 -84 1086
-270 1553 -566 588 -373 1076 -908 1389 -1525 207 -407 325 -782 394 -1253 19
-135 22 -192 22 -517 0 -387 -9 -497 -65 -768 -155 -764 -525 -1449 -1077
-1994 -165 -163 -268 -252 -428 -371 -530 -393 -1116 -630 -1798 -730 -135
-19 -192 -22 -517 -22 -325 0 -382 3 -517 22 -682 100 -1268 337 -1798 730
-160 119 -263 208 -428 371 -552 545 -922 1230 -1077 1994 -56 271 -65 381
-65 768 0 325 3 382 22 517 68 468 179 824 384 1233 196 391 427 707 746 1022
307 303 604 517 983 707 418 209 813 330 1260 385 69 9 139 18 155 20 17 2
185 3 375 1 288 -2 369 -6 487 -24z"/>
<path d="M7735 11184 c-216 -24 -444 -66 -612 -114 -695 -200 -1304 -632
-1731 -1230 -224 -314 -403 -708 -497 -1097 l-13 -53 3118 0 3118 0 -13 53
c-94 389 -273 783 -497 1097 -212 297 -471 556 -768 768 -334 238 -764 427
-1165 512 -233 49 -349 61 -630 65 -148 1 -288 1 -310 -1z m219 -816 c24 -34
20 -75 -10 -104 -21 -22 -23 -28 -11 -37 16 -14 67 -83 67 -91 0 -3 -13 -6
-30 -6 -16 0 -30 4 -30 9 0 4 -19 29 -41 55 -33 37 -47 46 -68 44 -25 -3 -26
-5 -24 -60 2 -55 1 -58 -23 -58 -22 0 -24 4 -24 43 0 24 -3 85 -6 135 l-7 92
96 0 c88 0 97 -2 111 -22z m402 6 c16 -4 20 -11 16 -26 -4 -18 -10 -20 -48
-14 l-42 5 -7 -103 c-8 -112 -14 -132 -39 -123 -19 8 -20 38 -5 143 13 84 9
94 -43 94 -22 0 -28 5 -28 21 0 21 3 22 88 15 48 -4 97 -10 108 -12z m-680
-106 c17 -106 11 -136 -31 -164 -15 -10 -46 -17 -72 -17 -73 0 -101 47 -120
204 -4 38 -2 47 12 53 10 3 20 5 22 2 2 -2 11 -44 20 -92 19 -111 26 -124 64
-124 79 0 84 24 44 217 -5 22 21 37 38 23 4 -4 14 -49 23 -102z m824 82 c105
-20 130 -30 130 -50 0 -23 3 -23 -80 -5 -35 7 -67 12 -71 9 -4 -2 -9 -17 -11
-33 -4 -28 -3 -29 64 -41 53 -9 68 -16 68 -29 0 -28 -7 -29 -75 -13 -36 9 -67
14 -69 11 -3 -3 -7 -20 -8 -39 l-3 -34 73 -14 c65 -13 73 -17 70 -36 -2 -11
-7 -20 -13 -19 -141 27 -185 39 -185 49 0 24 50 254 55 254 1 0 26 -5 55 -10z
m-1136 -89 c63 -53 59 -180 -6 -223 -104 -68 -228 27 -204 157 17 88 139 127
210 66z m1375 30 c8 -5 22 -33 30 -61 l16 -52 42 31 c42 31 77 39 87 22 3 -4
-21 -27 -54 -50 -33 -23 -60 -46 -60 -50 0 -4 9 -34 20 -66 25 -74 26 -97 3
-88 -24 9 -31 19 -49 80 l-15 52 -48 -34 c-47 -34 -84 -44 -95 -27 -3 5 24 30
59 55 36 26 65 53 65 59 0 13 -22 88 -35 121 -8 19 10 23 34 8z m-1672 -93
c-3 -13 -11 -53 -18 -90 -11 -61 -10 -70 9 -117 27 -61 27 -57 1 -64 -17 -5
-25 3 -44 46 -20 45 -33 58 -100 101 -75 47 -77 49 -54 61 21 12 29 9 81 -26
l57 -39 6 37 c17 103 21 112 54 113 9 0 11 -7 8 -22z m2006 -32 c81 -36 102
-56 77 -71 -5 -3 -23 1 -39 10 -17 8 -32 15 -35 15 -5 0 -50 -92 -82 -167 -14
-33 -37 -43 -49 -23 -4 6 3 32 16 58 12 26 33 71 46 100 l23 53 -35 15 c-33
13 -44 32 -28 48 4 3 10 5 13 4 4 -2 46 -21 93 -42z m-2317 -235 c11 9 14 8
14 -5 0 -11 5 -14 12 -10 8 5 9 2 5 -9 -3 -10 -2 -17 2 -17 13 0 5 -54 -8 -58
-6 -2 -9 -7 -6 -12 3 -5 -9 -12 -27 -15 -21 -5 -33 -4 -36 4 -2 6 -7 9 -10 7
-4 -2 -13 2 -20 10 -7 8 -9 14 -5 14 4 0 1 5 -7 10 -13 9 -13 11 0 20 10 7 11
10 2 10 -10 0 -10 4 0 19 7 11 16 17 20 15 4 -3 8 -1 8 5 0 12 34 20 38 8 2
-4 10 -3 18 4z m2550 0 c11 9 14 8 14 -5 0 -10 5 -14 10 -11 6 3 10 -1 10 -9
0 -9 6 -16 13 -17 9 0 9 -2 -1 -6 -10 -4 -10 -8 -1 -19 9 -11 9 -14 0 -14 -7
0 -9 -4 -6 -10 3 -5 -1 -10 -10 -10 -9 0 -13 -4 -10 -10 3 -5 0 -10 -7 -11 -7
0 -23 -2 -34 -4 -12 -3 -32 4 -44 15 -13 11 -19 20 -14 20 5 0 2 5 -6 10 -9 6
-11 13 -5 18 6 4 10 13 11 20 2 29 5 33 14 27 6 -3 10 -1 10 5 0 7 7 10 15 6
8 -3 15 0 16 7 0 9 2 8 6 -1 4 -10 8 -10 19 -1z"/>
<path d="M7800 10313 c0 -39 0 -39 38 -36 76 8 84 12 80 41 -3 25 -6 27 -60
30 l-58 3 0 -38z"/>
<path d="M7220 10225 c-37 -39 -21 -141 25 -159 50 -19 125 15 125 57 0 105
-90 166 -150 102z"/>
<path d="M4856 8558 c-38 -231 -41 -270 -41 -558 0 -288 3 -327 41 -557 l5
-33 3139 0 3139 0 5 33 c38 230 41 269 41 557 0 288 -3 327 -41 558 l-5 32
-3139 0 -3139 0 -5 -32z m1829 -156 c64 -31 98 -83 115 -174 11 -57 5 -68 -41
-68 -23 0 -28 6 -38 43 -14 57 -43 93 -87 107 -72 24 -147 -16 -160 -86 -13
-70 15 -111 95 -140 200 -73 250 -127 251 -271 0 -122 -54 -213 -146 -243 -59
-20 -149 -7 -198 27 -52 37 -98 123 -104 197 l-4 54 37 4 c21 2 38 0 40 -6 25
-100 37 -125 73 -150 45 -31 115 -35 163 -10 53 27 76 122 44 184 -15 29 -77
64 -160 90 -126 41 -185 131 -171 263 9 86 42 144 101 175 65 33 128 35 190 4z
m-1106 -2 c49 -14 88 -55 107 -114 43 -129 1 -281 -88 -316 -18 -8 -34 -14
-36 -16 -2 -1 8 -13 20 -27 13 -14 36 -50 50 -79 38 -75 118 -259 118 -269 0
-5 -22 -9 -48 -9 -55 0 -39 -24 -138 203 -26 60 -59 121 -75 138 -24 26 -33
29 -91 29 l-63 0 0 -182 0 -183 -42 -3 -43 -3 0 420 0 421 148 0 c81 0 163 -4
181 -10z m681 -45 l0 -55 -165 0 -165 0 0 -120 0 -120 155 0 155 0 0 -55 0
-55 -155 0 -155 0 0 -135 0 -135 170 0 170 0 0 -55 0 -55 -210 0 -210 0 0 420
0 420 205 0 205 0 0 -55z m1090 0 l0 -55 -90 0 -90 0 0 -365 0 -365 -40 0 -40
0 0 365 0 364 -92 3 -93 3 -3 53 -3 52 225 0 226 0 0 -55z m386 -100 c23 -82
63 -226 89 -320 25 -93 57 -208 71 -255 13 -47 24 -91 24 -97 0 -9 -16 -13
-45 -13 -50 0 -40 -18 -86 158 l-24 93 -114 -3 -115 -3 -27 -112 c-15 -62 -30
-117 -34 -123 -7 -11 -85 -14 -85 -2 0 4 11 48 24 97 13 50 45 171 71 270 100
387 117 450 122 458 3 4 23 7 46 5 l41 -3 42 -150z m356 -162 c3 -280 5 -322
21 -353 22 -45 63 -70 116 -70 57 0 89 18 114 64 21 39 22 55 25 359 l3 318
42 -3 42 -3 0 -290 c-1 -334 -9 -403 -59 -468 -54 -70 -77 -82 -165 -82 -101
0 -146 27 -188 112 l-28 58 -3 338 -3 337 40 0 40 0 3 -317z m840 307 c80 -23
125 -120 116 -250 -6 -86 -40 -148 -95 -176 -21 -10 -40 -20 -42 -21 -2 -1 9
-16 23 -34 15 -18 39 -55 53 -83 24 -48 113 -254 113 -263 0 -2 -23 -3 -51 -1
l-51 3 -59 138 c-91 212 -105 227 -204 227 l-55 0 0 -185 0 -185 -40 0 -40 0
0 420 0 420 148 0 c81 0 164 -5 184 -10z m518 -55 c18 -63 39 -137 89 -320 17
-60 51 -183 76 -272 25 -89 45 -166 45 -172 0 -6 -19 -11 -44 -11 l-45 0 -16
55 c-8 30 -23 87 -31 125 l-16 71 -116 -3 -116 -3 -30 -120 -31 -120 -44 -3
c-41 -3 -43 -2 -39 20 5 22 57 221 139 533 22 83 47 181 55 218 l16 68 45 -3
45 -3 18 -60z m386 43 c4 -13 30 -72 58 -133 29 -60 88 -190 132 -288 l79
-178 3 310 2 311 40 0 40 0 0 -421 0 -420 -41 3 -42 3 -64 140 c-35 77 -98
217 -141 312 l-77 172 -3 -314 -2 -315 -40 0 -40 0 0 420 0 420 44 0 c38 0 46
-4 52 -22z m912 -30 l-3 -53 -92 -3 -93 -3 0 -364 0 -365 -40 0 -40 0 0 365 0
364 -92 3 -93 3 -3 53 -3 52 231 0 231 0 -3 -52z"/>
<path d="M5338 8175 l3 -135 85 0 c135 0 182 30 190 121 6 63 -16 116 -56 136
-15 8 -65 13 -125 13 l-100 0 3 -135z"/>
<path d="M7640 8252 c0 -22 -62 -281 -76 -316 -5 -14 5 -16 86 -16 82 0 91 2
86 18 -3 9 -22 82 -42 162 -38 151 -53 194 -54 152z"/>
<path d="M8680 8175 l0 -135 93 0 c109 0 153 17 179 70 22 43 23 89 3 136 -20
49 -62 64 -180 64 l-95 0 0 -135z"/>
<path d="M9358 8152 c-15 -64 -34 -143 -42 -174 l-14 -58 90 0 c88 0 89 0 82
23 -4 12 -24 88 -44 169 -20 81 -38 150 -41 152 -2 2 -16 -48 -31 -112z"/>
<path d="M4895 7258 c53 -220 133 -442 231 -643 164 -338 354 -605 619 -870
504 -504 1119 -808 1845 -912 178 -26 642 -26 820 0 726 104 1341 408 1845
912 421 421 709 934 850 1513 l13 52 -3118 0 -3118 0 13 -52z m4475 -1008 c0
9 3 10 13 1 8 -6 17 -8 20 -4 4 3 7 1 7 -5 0 -7 7 -12 16 -12 8 0 12 -4 9 -10
-3 -5 -2 -10 3 -10 15 0 4 -59 -14 -77 -19 -19 -74 -27 -74 -11 0 6 -3 9 -6 5
-9 -9 -36 21 -29 33 3 5 2 10 -4 10 -5 0 -9 9 -8 20 1 11 5 20 9 20 4 0 8 7 8
16 0 8 5 12 10 9 6 -3 10 1 10 11 0 13 3 14 15 4 12 -10 15 -10 15 0z m-2767
-23 c4 3 7 -1 7 -10 0 -11 5 -14 17 -10 11 4 14 3 9 -5 -4 -7 -3 -12 2 -12 5
0 10 -11 10 -25 0 -14 -5 -25 -10 -25 -5 0 -6 -4 -3 -10 3 -5 1 -10 -4 -10 -6
0 -11 -7 -11 -17 0 -9 -3 -13 -7 -10 -3 4 -12 2 -20 -4 -9 -8 -13 -8 -13 -1 0
6 -6 9 -13 6 -7 -2 -24 4 -37 16 -13 11 -20 20 -15 20 4 0 2 7 -5 15 -10 12
-10 15 1 15 10 0 10 3 2 11 -9 9 -5 18 13 36 13 13 29 21 34 18 6 -3 10 -1 10
6 0 8 3 9 13 0 8 -6 17 -8 20 -4z m227 -147 c0 -39 2 -70 5 -70 3 0 31 13 63
29 42 21 62 27 75 20 9 -6 17 -14 17 -18 0 -4 -36 -23 -81 -42 -72 -31 -83
-39 -107 -81 -29 -52 -30 -52 -52 -38 -13 8 -11 17 13 60 25 44 28 59 27 133
-1 45 -1 86 -1 90 1 4 10 3 21 -3 17 -9 20 -21 20 -80z m2363 -27 c95 -147 83
-162 -68 -93 -48 23 -90 39 -92 36 -3 -3 16 -37 42 -77 34 -52 44 -74 36 -82
-18 -18 -37 1 -105 108 -46 72 -61 104 -54 113 16 18 28 15 123 -28 48 -22 91
-40 96 -40 5 0 -7 26 -27 58 -63 98 -60 92 -44 102 8 5 17 10 20 10 3 0 36
-48 73 -107z m-2074 -57 c89 -47 84 -181 -9 -243 -41 -28 -69 -29 -120 -3 -51
26 -74 69 -67 127 5 47 40 106 72 122 30 15 92 13 124 -3z m1831 -89 c55 -49
100 -93 100 -98 0 -22 -33 -19 -65 5 l-34 26 -43 -21 c-42 -20 -43 -22 -40
-63 3 -34 0 -45 -14 -50 -23 -9 -33 9 -35 59 0 22 -4 80 -7 128 -6 74 -5 90 8
98 8 4 18 7 22 6 4 -1 53 -42 108 -90z m-1674 18 c4 -8 -6 -54 -21 -100 -15
-47 -24 -92 -22 -100 10 -24 55 -48 80 -41 27 6 36 22 69 126 21 62 28 74 44
72 10 -2 20 -5 21 -6 2 -2 -11 -46 -28 -99 -42 -132 -82 -161 -174 -123 -63
27 -69 67 -29 199 26 84 46 108 60 72z m1410 -15 c39 -14 58 -44 39 -60 -11
-9 -20 -7 -43 10 -27 20 -31 21 -65 7 -61 -26 -75 -87 -34 -148 19 -28 30 -35
64 -37 52 -4 100 31 89 66 -7 21 -9 21 -41 8 -36 -15 -45 -12 -45 14 0 11 17
21 52 32 59 18 61 17 80 -45 11 -37 10 -39 -25 -74 -32 -32 -43 -37 -95 -41
-57 -4 -62 -3 -98 31 -35 32 -38 39 -42 99 -4 57 -1 68 19 92 13 15 42 33 64
41 49 17 46 17 81 5z m-1112 -59 c86 -21 106 -37 106 -83 0 -29 -38 -78 -61
-78 -8 0 -8 -4 -2 -12 15 -20 46 -109 40 -115 -16 -15 -46 13 -66 61 -25 62
-35 73 -71 78 -23 3 -26 -1 -34 -49 -8 -46 -13 -53 -33 -53 -26 0 -27 1 -13
72 29 143 42 198 48 198 4 0 43 -9 86 -19z m874 -27 c31 -22 62 -86 62 -131 0
-41 -24 -85 -60 -110 -32 -22 -108 -22 -142 1 -77 50 -77 199 0 240 36 20 112
20 140 0z m-475 -25 c23 -10 47 -46 47 -69 0 -20 -45 -10 -55 13 -8 17 -18 22
-50 22 -36 0 -40 -3 -40 -24 0 -20 9 -27 53 -41 68 -22 92 -45 92 -85 0 -48
-39 -80 -100 -80 -62 0 -104 28 -108 73 -3 27 0 32 17 32 12 0 21 -5 21 -12 0
-6 7 -20 17 -30 19 -22 85 -25 102 -4 20 24 1 45 -55 61 -65 19 -94 45 -94 84
0 57 86 91 153 60z m131 -108 l9 -113 64 7 c64 7 65 6 61 -17 -3 -21 -9 -23
-83 -29 -44 -3 -82 -5 -84 -3 -6 5 -22 248 -16 262 3 7 13 12 22 10 15 -3 19
-21 27 -117z"/>
<path d="M7017 5959 c-29 -17 -59 -87 -52 -120 11 -51 76 -75 127 -48 23 12
48 67 48 104 0 55 -73 93 -123 64z"/>
<path d="M8850 5921 c0 -10 3 -32 6 -49 6 -31 6 -31 36 -16 l30 16 -33 34
c-38 40 -39 40 -39 15z"/>
<path d="M7516 5809 c-17 -54 -15 -57 31 -68 51 -13 78 -8 88 17 8 21 -28 52
-60 52 -13 0 -30 3 -39 6 -9 3 -18 0 -20 -7z"/>
<path d="M8327 5788 c-26 -20 -36 -61 -27 -104 9 -40 49 -84 76 -84 21 0 56
20 71 39 25 33 10 121 -25 147 -22 17 -73 18 -95 2z"/>
</g>
</svg>
