<?xml version="1.0" standalone="no"?>
<!DOCTYPE svg PUBLIC "-//W3C//DTD SVG 20010904//EN"
 "http://www.w3.org/TR/2001/REC-SVG-20010904/DTD/svg10.dtd">
<svg version="1.0" xmlns="http://www.w3.org/2000/svg"
 width="360.000000pt" height="360.000000pt" viewBox="0 0 360.000000 360.000000"
 preserveAspectRatio="xMidYMid meet">
<metadata>
Created by potrace 1.16, written by Peter Selinger 2001-2019
</metadata>
<g transform="translate(0.000000,360.000000) scale(0.100000,-0.100000)"
fill="#000000" stroke="none">
<path d="M1519 3320 c-150 -27 -284 -72 -434 -146 -166 -82 -292 -172 -425
-304 -223 -223 -375 -502 -442 -816 -20 -96 -23 -136 -23 -329 1 -205 3 -228
29 -340 176 -754 813 -1265 1576 -1265 762 0 1400 512 1576 1265 26 112 28
135 29 340 0 193 -3 233 -23 329 -46 215 -145 441 -269 616 -86 120 -251 285
-373 373 -116 82 -321 185 -454 227 -226 71 -533 91 -767 50z m1388 -711 c83
-51 114 -202 63 -303 -32 -64 -80 -101 -154 -121 -33 -8 -64 -19 -69 -24 -5
-5 -45 -143 -89 -307 -43 -165 -92 -328 -109 -363 -16 -35 -29 -65 -29 -66 0
-2 25 -13 55 -26 30 -12 55 -27 55 -32 0 -4 -8 -6 -18 -3 -34 11 -235 46 -350
60 -358 46 -722 46 -1072 0 -131 -17 -330 -51 -354 -60 -9 -3 -16 -2 -16 4 0
14 132 67 205 83 33 6 63 15 67 18 4 4 -9 33 -29 66 -47 79 -79 150 -174 391
-83 212 -85 213 -147 214 -38 0 -101 38 -126 78 -14 20 -38 78 -55 127 -57
171 -40 223 24 76 22 -50 43 -91 47 -91 14 0 9 21 -27 103 -38 87 -42 107 -22
107 6 0 34 -40 61 -89 30 -56 53 -88 61 -85 10 4 1 31 -31 98 -24 51 -44 96
-44 100 0 3 7 6 15 6 9 0 39 -36 67 -80 47 -74 68 -96 68 -70 0 6 -23 46 -50
90 -55 87 -56 90 -37 90 31 0 163 -182 190 -262 17 -49 10 -101 -19 -143 -8
-11 -14 -30 -14 -43 0 -12 42 -89 93 -170 52 -81 116 -183 142 -227 48 -78
125 -239 125 -261 0 -7 18 -8 58 -2 110 16 458 25 637 17 208 -9 421 -33 498
-55 13 -4 17 1 17 20 0 38 46 174 91 273 80 173 179 412 179 431 0 10 -12 29
-26 43 -93 87 -85 252 18 345 74 67 160 83 225 43z m-1273 -100 l68 -32 57 18
c107 35 179 20 264 -55 41 -36 46 -38 108 -36 55 1 75 -4 124 -29 110 -56 170
-167 167 -307 -1 -70 1 -79 28 -113 62 -78 64 -168 7 -229 -48 -51 -118 -64
-208 -40 -13 4 -17 -8 -22 -62 -4 -37 -8 -68 -10 -70 -1 -2 -27 3 -57 11 -160
43 -293 59 -490 59 -167 0 -209 -3 -295 -23 -55 -13 -110 -25 -122 -28 -21 -5
-22 -2 -25 83 l-3 87 -54 28 c-71 37 -106 72 -138 138 -20 41 -27 68 -26 115
1 111 57 183 163 213 l58 16 11 59 c36 205 203 288 395 197z m-834 -616 c0
-10 21 -45 46 -78 75 -98 106 -190 88 -267 l-7 -33 -13 30 c-16 36 -18 23 -4
-24 8 -30 7 -33 -10 -28 -18 5 -19 3 -5 -24 19 -36 19 -41 -2 -35 -10 2 -29 7
-43 10 -21 5 -20 4 5 -8 l30 -14 -28 -7 c-36 -9 -128 1 -170 19 -18 7 -54 32
-82 55 -27 22 -64 48 -82 56 -39 19 -36 29 15 52 55 24 156 21 215 -5 l48 -21
-21 28 c-11 16 -27 57 -36 90 -17 67 -10 132 21 191 17 33 35 39 35 13z m2016
-95 c23 -69 15 -162 -19 -222 -14 -25 -24 -46 -23 -46 2 0 18 8 37 17 48 25
171 24 227 -1 48 -22 52 -31 19 -40 -13 -3 -52 -28 -86 -55 -82 -66 -129 -83
-216 -79 -63 3 -68 4 -45 15 23 12 22 12 -12 7 -43 -7 -44 -5 -21 39 15 30 15
31 -1 18 -24 -20 -29 -9 -17 35 6 21 9 40 6 42 -2 2 -7 -7 -11 -22 -11 -46
-24 -28 -24 35 0 86 14 125 76 209 30 40 57 84 60 97 9 34 29 14 50 -49z
m-851 -398 c236 -13 361 -26 525 -56 180 -33 424 -104 409 -119 -3 -2 -57 5
-121 15 -645 105 -1392 105 -2012 -1 -65 -11 -121 -17 -124 -15 -6 7 -10 5
188 60 197 54 268 69 421 91 232 32 448 39 714 25z"/>
<path d="M1429 2487 c-129 -48 -182 -184 -130 -332 11 -30 16 -55 12 -55 -4 0
-22 21 -40 46 -32 46 -32 46 -82 42 -118 -12 -169 -153 -98 -276 39 -69 79
-94 141 -89 70 6 80 19 73 86 -4 31 -9 64 -12 75 -10 36 19 11 32 -28 20 -58
45 -78 104 -84 103 -10 141 30 141 148 0 38 4 70 8 70 4 0 13 -19 19 -42 25
-92 90 -150 183 -162 88 -12 141 7 270 98 35 25 60 33 60 19 0 -5 -15 -18 -33
-30 -18 -12 -40 -35 -50 -52 -21 -36 -15 -41 71 -64 78 -21 106 -39 122 -77
24 -58 159 -62 207 -5 44 51 25 120 -57 200 -28 27 -50 52 -50 56 0 3 11 4 25
1 24 -4 25 -3 25 50 0 123 -69 222 -175 253 -67 20 -122 13 -182 -21 -49 -28
-52 -25 -22 18 22 30 22 30 2 56 -30 41 -91 72 -141 72 -67 0 -108 -25 -165
-101 -28 -38 -53 -66 -55 -64 -2 2 3 25 12 51 25 73 21 90 -23 120 -48 31
-138 41 -192 21z"/>
<path d="M1595 1849 c-167 -11 -289 -39 -306 -70 -14 -28 -11 -29 40 -18 64
14 73 5 17 -16 -50 -19 -76 -55 -76 -106 0 -17 4 -20 23 -15 159 43 459 53
642 22 87 -15 178 -35 238 -52 17 -5 17 -4 4 23 -11 20 -30 34 -66 47 -53 19
-83 44 -40 33 13 -3 43 -9 67 -13 l42 -7 0 32 c0 18 -4 40 -10 50 -31 60 -326
105 -575 90z"/>
</g>
</svg>
